<?xml version="1.0" encoding="UTF-8"?>
<svg xmlns="http://www.w3.org/2000/svg" version="1.1" xmlns:xlink="http://www.w3.org/1999/xlink" viewBox="0 0 269.21 147.53">
  <defs>
    <style>
      .cls-1 {
        fill: none;
      }

      .cls-2 {
        clip-path: url(#clippath-1);
      }

      .cls-3 {
        fill: #3a3a3a;
      }

      .cls-4 {
        clip-path: url(#clippath);
      }
    </style>
    <clipPath id="clippath">
      <rect class="cls-1" width="269.21" height="147.53"/>
    </clipPath>
    <clipPath id="clippath-1">
      <rect class="cls-1" width="269.21" height="147.53"/>
    </clipPath>
  </defs>
  <!-- Generator: Adobe Illustrator 28.6.0, SVG Export Plug-In . SVG Version: 1.2.0 Build 709)  -->
  <g>
    <g id="Layer_1">
      <g id="Artwork_3">
        <g class="cls-4">
          <g class="cls-2">
            <path class="cls-3" d="M156.76,17.15c1.16,1.12,2.56,1.98,3.99,2.63,1.44.66,2.87,1.11,4.19,1.49,1.32.38,2.56.7,3.69,1.06,1.13.36,2.15.75,3.04,1.22.01,0,.02.01.04.02l-.07.09.12-.07c.86.45,1.58.97,2.2,1.55,1.28,1.18,1.95,2.51,2.23,3.49.13.5.19.9.2,1.18.01.28.02.43.02.43,0,0,.05-.14.14-.41.09-.28.18-.69.23-1.26.06-.89-.1-2.17-.74-3.56,2.16-3.88,8.04-5.84,11.96-7.1,3.86-1.24,7.63-1.64,11.53-1.86.98.04,1.97.1,2.97.21,2.24.24,4.42.61,6.49,1.13,2.07.53,4.03,1.18,5.88,1.88,3.66,1.48,6.84,3.21,9.35,4.93,1.72,1.18,3.16,2.3,4.31,3.27.04.06.09.11.14.16.05.05.11.08.16.1.4.35.76.68,1.08.97.66.57,1.11,1.07,1.44,1.38.33.32.5.49.5.49,0,0-.13-.2-.37-.59-.26-.38-.59-.98-1.12-1.68-.24-.35-.53-.74-.85-1.15.12-.66.38-1.21.73-1.67.72-.2,1.45-.54,2.22-.8,3.14-1.05,6.44-.6,9.6.13,6.15,1.43,10.93,3.9,15.31,8.45.51.53,1.42-.08.95-.7-.41-.53-.84-1.03-1.3-1.51-.01-.02-.02-.04-.03-.06-.12-.22-.26-.46-.41-.73-.16-.26-.36-.52-.56-.81-.42-.57-.87-1.27-1.49-1.92-.3-.34-.62-.69-.96-1.06-.34-.36-.73-.69-1.13-1.06-.78-.75-1.71-1.41-2.69-2.13-2.01-1.34-4.42-2.57-7.11-3.39-2.7-.79-5.38-1.08-7.8-1.06-1.21.06-2.36.1-3.42.3-.53.09-1.04.15-1.52.27-.48.13-.94.25-1.38.36-.88.21-1.64.54-2.3.79-.33.13-.64.24-.92.37-.27.14-.52.27-.75.38-.16.08-.3.16-.43.23-2.13-1.82-4.79-3.64-7.92-5.24-1.91-.94-3.99-1.79-6.22-2.47-1.65-.5-3.39-.89-5.18-1.16-.02,0-.03,0-.05,0-.01,0-.02,0-.03,0-1.8-.34-3.62-.54-5.45-.61-.93-.25-19.11.84-27.13,5.75-1.3-.81-2.65-1.39-4.44-2.05-3.65-1.33-6.8-3.39-9.57-6.06-1.07-1.37-1.87-2.99-2.28-4.95-.04-.21-.14-.35-.26-.47,0-.61-.34-4.29-.34-4.29,0,0-.06.14-.16.4-.11.27-.25.66-.43,1.17,0,.02-.01.05-.02.07-.14.07-.96,3.52-1.1,4.44-.15.99-.23,2.1-.17,3.31.06,1.21.28,2.55.81,3.91.53,1.35,1.39,2.72,2.56,3.84"/>
            <path class="cls-3" d="M153.73,116.53c-.64,1.19-1.42,2.25-2.29,3.25-.22.14-.45.28-.68.44-1.03.69-2.18,1.61-3.35,2.75-1.16,1.15-2.33,2.53-3.35,4.12-1.01,1.6-1.77,3.24-2.32,4.78-.54,1.55-.89,2.98-1.08,4.2-.11.6-.16,1.17-.21,1.65-.01.1-.01.19-.02.29-.12.5-.23,1-.34,1.5-.18.27-.36.54-.54.8-.32.46.35,1,.7.54.17-.23.34-.46.51-.69.19-.05.36-.18.41-.43.01-.06.03-.13.04-.19,4.84-6.51,13.56-21.04,13.36-21.17.45-.64.99-2.33.43-3.02-.28-.34-1.08.79-1.28,1.16"/>
            <path class="cls-3" d="M156.08,105.04c-3.49-3.49-7.15-5.7-7.15-5.7,0,0,1.04,4.32,4.17,8.14.45.55.92,1.06,1.4,1.53,2.04,2.91,4.19,5.75,6.3,8.6.47.74.94,1.48,1.39,2.23.13.22,1.22,1.63,1.43,1.55.42.04.02-1.82-.31-2.26-.1-.13-3.52-10.38-7.22-14.08"/>
            <path class="cls-3" d="M170.73,95.26c.47-.2.93-.47,1.42-.72.99-.49,1.97-1.14,3.01-1.83,2.02-1.45,4.09-3.29,5.92-5.53,1.8-2.26,3.15-4.68,4.13-6.96.45-1.16.88-2.26,1.15-3.33.14-.53.3-1.04.4-1.54.09-.5.18-.98.26-1.44.18-.91.22-1.76.28-2.49.02-.37.06-.7.06-1.02,0-.32,0-.6-.01-.86-.02-1.03-.06-1.59-.06-1.59,0,0-.21.54-.54,1.5-.08.24-.17.5-.27.79-.11.29-.24.59-.38.92-.28.66-.54,1.41-.94,2.2-.18.4-.38.82-.58,1.25-.2.43-.46.86-.69,1.32-.44.92-1.03,1.84-1.59,2.83-1.21,1.94-2.62,3.98-4.23,6.02-1.65,2.02-3.34,3.83-4.97,5.42-.84.76-1.62,1.53-2.42,2.16-.4.32-.76.67-1.14.95-.38.29-.75.57-1.1.83-.69.56-1.37.98-1.95,1.39-.29.2-.56.4-.82.56-.26.16-.5.3-.71.43-.86.53-1.35.84-1.35.84,0,0,.55-.09,1.57-.29.25-.05.54-.11.84-.17.31-.07.63-.18.98-.28.7-.22,1.52-.43,2.37-.81.43-.18.88-.37,1.35-.57"/>
            <path class="cls-3" d="M169.28,65.26c.45-.45,1.16-.85,1.81-1.24.32-.19.7-.41,1-.65.31-.24.57-.48.8-.74.46-.5.75-1.05.87-1.51.12-.47.07-.85,0-1.07-.07-.23-.13-.33-.13-.33-.02-.02.06.54-.42,1.15-.49.59-1.46,1.13-2.83,1.37-.73.17-1.6.33-2.61.88-.15.08-.3.18-.44.29-.25-.81-.6-1.65-.96-2.48-.23-.53-.42-1.08-.57-1.64-.15-.55-.24-1.09-.24-1.53,0-.22.01-.41.05-.55.02-.15.07-.27.13-.4.12-.24.37-.52.81-.79.42-.27.95-.5,1.49-.74.53-.24,1.07-.47,1.56-.74.49-.26.94-.58,1.28-.9.35-.34.58-.69.7-1,.05-.16.1-.29.13-.41,0-.12.02-.22.02-.3,0-.16,0-.24,0-.24,0,0-.06.06-.16.18-.05.05-.11.12-.18.2-.08.07-.19.13-.29.21-.44.28-1.1.41-2.04.41-.46.01-1,0-1.61.02-.61.03-1.3.07-2.1.29-.2.04-.41.13-.62.21-.21.07-.43.19-.65.31-.22.11-.44.27-.65.45-.22.17-.42.37-.61.59-.77.88-1.13,2.14-1.11,3.2.01,1.08.28,2,.63,2.79.35.79.79,1.48,1.25,2.06.87,1.06,1.66,1.84,2.23,2.57.02.03.04.06.07.09-.15.42-.25.86-.27,1.27-.05.71.03,1.34.11,1.9.1.58.17,1.03.23,1.53.09.49.11,1,.18,1.5.03.51.08,1.03.1,1.55.19,4.2-.49,8.08-1.33,10.88-.4,1.41-.87,2.52-1.18,3.32-.35.77-.53,1.22-.53,1.22,0,0,.37-.29,1.03-.88.61-.61,1.53-1.51,2.42-2.82.9-1.3,1.82-2.99,2.49-5.01.68-2.02,1.05-4.39.96-6.87-.02-.62-.09-1.23-.16-1.83-.1-.6-.18-1.19-.34-1.76-.13-.57-.3-1.15-.44-1.58-.14-.45-.24-.83-.28-1.12-.04-.3-.04-.48.01-.68.06-.19.18-.42.41-.64"/>
            <path class="cls-3" d="M268.89,53.96c-.11.2-.23.45-.39.75-.15.3-.31.64-.56,1-.86,1.48-2.31,3.5-4.47,5.57-2.16,2.05-5.04,4.17-8.62,5.62-1.76.78-3.71,1.32-5.74,1.69-2.03.4-4.17.47-6.32.29-2.15-.14-4.28-.67-6.35-1.25-2.07-.59-4.1-1.27-6.08-1.86-.37-.11-.73-.21-1.1-.32-.77-.36-1.54-.71-2.31-1.01-.34-.15-.69-.31-1.03-.46-.51-.28-1.04-.51-1.6-.7-1.37-.6-2.75-1.2-4.13-1.78-.57-.24-1.24-.52-1.93-.75-.17-.46-.23-.99-.14-1.62,0-.05,0-.09,0-.13.13-.1.26-.19.38-.29,2.71-2.1,4.83-4.35,6.39-6.38,1.57-2.03,2.62-3.8,3.26-5.06.34-.62.55-1.13.71-1.46.15-.34.24-.51.24-.51,0,0-.13.15-.37.43-.25.27-.59.7-1.07,1.21-.93,1.04-2.34,2.47-4.17,4.09-3.65,3.24-9.24,7.01-16.06,9.44-6.82,2.43-13.53,3.04-18.41,2.84-2.44-.09-4.44-.31-5.82-.53-.69-.09-1.22-.21-1.59-.26-.37-.06-.56-.09-.56-.09,0,0,.18.09.51.25.34.15.82.42,1.48.68,1.3.57,3.23,1.28,5.73,1.86,2.49.58,5.56.98,8.99.89,1.84-.04,3.78-.25,5.77-.64,1.44,1.94.54,5.36.24,7.5-.22,1.55-.49,3.1-.8,4.64-3.01,10.01-10.02,18.67-16.43,27.5-5.76,6.29-11.47,13.6-11.47,22.01-.1.32-.21.65-.3.98q-1.38-2.06-2.76-4.12c-1.72-4.7-2.47-8.7-2.61-10.85-.04-.61-1.07-.57-1.07,2.55,0,8.19,1.47,16.52,6.43,23.04.9,2.04,1.78,3.86,2.51,5.31.53,1.06.98,1.91,1.3,2.51,0,.02.02.03.03.05l.02.48c.03.7,1.12.57,1.08-.13-.06-1.34-.13-2.69-.19-4.03,0,0,0,.03,0,.03,0,0-.02-.31-.04-.9,0-.14-.02-.31-.03-.48-.01-.31-.03-.61-.04-.92-.01-.35-.02-.73-.02-1.16-.03-2.22.07-5.43.72-9.29.64-3.86,1.85-8.36,3.96-13,1.05-2.32,2.31-4.68,3.83-6.97.77-1.14,1.57-2.28,2.46-3.4.88-1.12,1.83-2.24,2.8-3.36,3.94-4.45,8.11-8.57,11.39-12.87,3.24-4.18,5.45-8.55,6.57-12.45,1.38-3.28,2.36-6.71,2.97-10.24.32-.2.64-.37.97-.53,1.66.3,3.32.61,4.97.93,1.8.65,3.63,1.23,5.48,1.73,2.61.71,5.25,1.28,7.91,1.7,2.25.39,4.54.65,6.84.79.12,0,.22-.01.31-.05.62.1,1.25.18,1.89.22,2.54.21,5.06.04,7.38-.52,2.32-.54,4.49-1.33,6.39-2.37,3.86-1.99,6.72-4.74,8.67-7.28.24-.32.48-.63.71-.94.2-.32.4-.64.6-.94.19-.31.37-.6.55-.89.18-.29.31-.59.45-.87.27-.57.56-1.08.75-1.59.19-.5.36-.96.52-1.38.17-.41.26-.79.34-1.12.08-.33.15-.6.21-.83.11-.44.17-.68.17-.68,0,0-.11.21-.32.62"/>
            <path class="cls-3" d="M11.84,33.28c4.38-4.55,9.16-7.02,15.31-8.45,3.15-.73,6.46-1.18,9.59-.13.77.26,1.5.6,2.22.8.35.46.61,1.01.73,1.67-.32.41-.61.8-.85,1.15-.53.7-.87,1.3-1.12,1.68-.25.39-.38.59-.38.59,0,0,.17-.17.5-.49.34-.31.79-.81,1.44-1.38.32-.3.68-.63,1.08-.97.06-.02.11-.04.17-.1.05-.05.09-.11.14-.16,1.14-.97,2.58-2.09,4.31-3.27,2.51-1.72,5.68-3.45,9.34-4.93,1.85-.71,3.81-1.35,5.88-1.89,2.07-.52,4.25-.9,6.49-1.13,1-.11,1.99-.17,2.97-.21,3.9.22,7.68.62,11.53,1.86,3.92,1.26,9.8,3.22,11.96,7.1-.64,1.38-.8,2.67-.74,3.55.05.57.14.98.23,1.26.09.27.14.41.14.41,0,0,0-.15.02-.43.02-.28.07-.69.2-1.18.27-.99.95-2.31,2.23-3.49.62-.57,1.34-1.1,2.2-1.55l.11.07-.07-.09s.02-.01.04-.02c.9-.47,1.92-.86,3.04-1.22,1.13-.36,2.36-.68,3.69-1.06,1.32-.38,2.75-.82,4.19-1.48,1.44-.66,2.83-1.51,3.99-2.63,1.17-1.11,2.04-2.49,2.56-3.84.53-1.36.75-2.7.81-3.91.06-1.22-.02-2.33-.17-3.31-.29-1.96-.77-3.45-1.11-4.48,0-.02,0-.04,0-.05.03-.29-.08-.49-.24-.62-.08-.21-.14-.39-.2-.53-.1-.26-.16-.4-.16-.4,0,0-.93,2.4-.84,2.92-.04.07-.08.14-.1.24-.81,4.66-2.48,9-6.7,11.62-3.19,1.98-6.86,1.25-10,2.64-1.95-1.2-4.48-2.13-5.22-2.44-5.59-2.3-18-3.47-18.11-3.33-1,0-6.69.68-8.49,1.02-.01,0-.02,0-.03,0-.01,0-.03,0-.04,0-1.79.28-3.53.67-5.18,1.17-2.23.68-4.31,1.53-6.22,2.47-3.13,1.6-5.78,3.42-7.92,5.24-.13-.07-.27-.14-.43-.23-.22-.11-.47-.24-.74-.38-.28-.13-.59-.24-.92-.37-.67-.25-1.42-.58-2.3-.79-.44-.11-.9-.24-1.38-.36-.48-.12-.99-.18-1.52-.27-1.06-.2-2.2-.25-3.42-.3-2.42-.02-5.1.28-7.8,1.06-2.69.82-5.1,2.05-7.11,3.39-.98.71-1.91,1.38-2.69,2.13-.39.37-.79.7-1.13,1.06-.33.37-.65.72-.96,1.06-.62.65-1.07,1.35-1.49,1.92-.2.29-.4.56-.56.81-.15.27-.29.51-.41.73-.01.02-.02.04-.03.06-.45.48-.89.98-1.3,1.5-.48.62.44,1.23.95.7"/>
            <path class="cls-3" d="M129.12,139.53c-.11-.5-.22-1-.34-1.5,0-.1-.01-.19-.02-.29-.05-.49-.1-1.05-.21-1.65-.19-1.22-.54-2.66-1.08-4.2-.56-1.54-1.31-3.18-2.32-4.78-1.02-1.59-2.19-2.97-3.35-4.12-1.17-1.14-2.33-2.06-3.35-2.75-.23-.16-1.32-1.31-1.54-1.44-.86-1-.79-1.06-1.42-2.25-.2-.37-1-2.02-1.28-1.68-.57.69-.02,2.91.43,3.54-.21.13,8.52,14.66,13.36,21.17.01.06.03.13.04.19.05.24.22.38.41.43.17.23.34.46.51.69.34.46,1.01-.08.69-.54-.18-.27-.36-.53-.54-.8"/>
            <path class="cls-3" d="M116.12,107.48c3.12-3.82,4.17-8.14,4.17-8.14,0,0-4.02,1.88-7.15,5.7-1.44,1.76-2.43,3.62-3.09,5.11-1.95,2.5-4.67,11.27-4.25,11.23.21.07,1.1-1.33,1.23-1.55.45-.75.92-1.49,1.39-2.23,2.11-2.86,4.26-5.69,6.3-8.6.47-.47.94-.98,1.4-1.53"/>
            <path class="cls-3" d="M103.55,96.09c-.26-.16-.53-.36-.82-.56-.58-.41-1.26-.83-1.95-1.39-.35-.26-.72-.54-1.1-.83-.38-.29-.75-.63-1.14-.95-.8-.63-1.58-1.4-2.42-2.16-1.63-1.6-3.33-3.41-4.97-5.43-1.62-2.04-3.03-4.08-4.23-6.02-.56-.99-1.15-1.91-1.59-2.83-.23-.46-.49-.89-.69-1.32-.2-.43-.39-.85-.58-1.25-.4-.79-.66-1.55-.94-2.2-.13-.33-.27-.64-.38-.92-.1-.29-.19-.55-.27-.79-.33-.96-.54-1.5-.54-1.5,0,0-.04.56-.06,1.59,0,.26,0,.55-.01.86,0,.31.04.65.06,1.02.06.73.1,1.58.28,2.49.08.46.17.94.26,1.44.1.5.26,1.01.4,1.54.26,1.08.69,2.17,1.15,3.34.98,2.28,2.33,4.7,4.13,6.96,1.82,2.24,3.9,4.08,5.92,5.53,1.04.69,2.02,1.34,3.01,1.83.49.25.95.51,1.42.72.47.2.92.39,1.35.56.85.38,1.67.59,2.37.81.35.1.68.21.98.28.31.06.59.12.85.17,1.01.2,1.57.29,1.57.29,0,0-.48-.32-1.34-.85-.21-.13-.45-.28-.72-.43"/>
            <path class="cls-3" d="M104.57,62.62c.47-.58.9-1.27,1.25-2.06.35-.79.62-1.71.63-2.79.02-1.06-.34-2.32-1.11-3.2-.19-.22-.39-.42-.61-.59-.21-.18-.43-.34-.65-.45-.22-.12-.44-.24-.65-.31-.21-.08-.42-.17-.62-.21-.81-.22-1.5-.26-2.1-.29-.61-.02-1.14-.01-1.61-.02-.94,0-1.6-.13-2.04-.41-.1-.07-.2-.14-.29-.21-.07-.08-.13-.14-.18-.2-.11-.12-.16-.18-.16-.18,0,0,0,.08,0,.24,0,.08.01.18.02.31.03.11.07.25.13.4.12.31.35.66.7,1,.34.32.79.64,1.28.89.49.27,1.03.5,1.56.74.53.24,1.07.47,1.49.74.43.27.68.55.81.79.06.13.11.24.13.4.04.14.05.33.05.55,0,.44-.09.98-.24,1.53-.15.55-.34,1.1-.57,1.64-.36.82-.71,1.66-.96,2.48-.15-.11-.3-.21-.44-.29-1.01-.55-1.88-.7-2.61-.88-1.38-.24-2.35-.78-2.83-1.37-.48-.6-.39-1.16-.42-1.15,0,0-.06.1-.13.33-.07.22-.12.6,0,1.07.12.47.41,1.01.87,1.51.23.26.49.5.8.74.3.24.68.46,1,.65.66.39,1.36.79,1.81,1.24.22.23.35.45.41.64.05.2.05.38,0,.68-.04.29-.14.67-.28,1.12-.14.44-.3,1.02-.44,1.58-.16.57-.23,1.16-.34,1.76-.07.6-.14,1.21-.16,1.83-.09,2.49.28,4.85.96,6.87.67,2.03,1.58,3.71,2.49,5.01.89,1.31,1.8,2.21,2.42,2.82.66.58,1.03.88,1.03.88,0,0-.19-.45-.53-1.22-.31-.79-.78-1.91-1.18-3.32-.84-2.8-1.52-6.68-1.33-10.88.01-.53.07-1.04.1-1.55.07-.51.09-1.01.18-1.5.07-.49.13-.95.23-1.53.09-.56.16-1.2.11-1.9-.02-.41-.12-.85-.28-1.27.02-.03.04-.06.07-.09.57-.73,1.36-1.51,2.23-2.57"/>
            <path class="cls-3" d="M99.79,115.69c-.14,2.15-.54,4.24-1.23,6.24-1.38,2.06-1.71,5.42-4.15,6.18-.09-.33-.2-.65-.3-.98,0-8.41-5.71-15.72-11.47-22.01-6.42-8.83-13.42-17.49-16.44-27.5-.31-1.54-.58-3.08-.8-4.64-.3-2.15-1.2-5.57.24-7.5,1.99.39,3.93.59,5.78.64,3.43.09,6.49-.31,8.98-.9,2.5-.58,4.43-1.29,5.73-1.86.65-.26,1.14-.53,1.48-.68.33-.16.51-.25.51-.25,0,0-.19.03-.56.09-.37.05-.89.17-1.59.26-1.38.22-3.37.44-5.82.53-4.88.2-11.59-.41-18.41-2.84-6.82-2.43-12.4-6.2-16.06-9.44-1.84-1.61-3.24-3.05-4.17-4.09-.48-.51-.82-.93-1.07-1.21-.25-.28-.38-.42-.38-.42,0,0,.08.18.24.51.16.33.37.84.71,1.46.65,1.26,1.7,3.03,3.26,5.06,1.56,2.03,3.68,4.28,6.39,6.38.12.1.26.19.38.29,0,.04,0,.09,0,.13.09.64.03,1.17-.14,1.62-.69.23-1.36.51-1.93.75-1.38.58-2.76,1.17-4.13,1.78-.56.19-1.09.43-1.6.71-.34.15-.69.31-1.03.46-.78.31-1.54.66-2.31,1.01-.36.1-.73.21-1.1.32-1.98.59-4.01,1.27-6.08,1.86-2.07.58-4.2,1.11-6.35,1.25-2.15.18-4.29.1-6.31-.29-2.03-.37-3.97-.92-5.74-1.69-3.58-1.45-6.46-3.57-8.62-5.62-2.15-2.07-3.6-4.09-4.47-5.57-.24-.36-.41-.7-.56-1-.15-.3-.28-.55-.39-.75C.11,53.55,0,53.34,0,53.34c0,0,.06.23.17.68.06.22.13.5.21.82.09.33.17.71.34,1.12.16.41.33.87.52,1.38.19.51.48,1.01.75,1.59.15.28.28.58.45.87.18.29.36.58.55.89.19.31.39.62.6.94.23.3.47.62.71.94,1.95,2.54,4.8,5.29,8.67,7.28,1.9,1.04,4.07,1.83,6.39,2.37,2.32.56,4.83.73,7.38.52.64-.05,1.27-.12,1.89-.22.09.04.19.06.31.05,2.3-.14,4.58-.4,6.84-.79,2.66-.43,5.3-.99,7.91-1.7,1.85-.51,3.67-1.09,5.48-1.74,1.65-.32,3.31-.63,4.97-.93.33.15.65.33.97.53.61,3.52,1.6,6.96,2.97,10.24,1.11,3.9,3.32,8.27,6.57,12.45,3.28,4.3,7.45,8.42,11.39,12.87.97,1.12,1.92,2.23,2.8,3.36.88,1.12,1.68,2.27,2.46,3.4,1.53,2.29,2.78,4.65,3.83,6.97,2.11,4.64,3.32,9.14,3.96,13,.65,3.86.75,7.07.72,9.29,0,.43,0,.81-.02,1.16-.01.31-.03.61-.04.92,0,.18-.02.34-.03.48-.03.59-.04.9-.04.9,0,0,0-.02,0-.03-.06,1.34-.13,2.69-.19,4.03-.03.7,1.05.84,1.08.13l.02-.48s.02-.03.03-.05c.32-.6.77-1.45,1.3-2.51.72-1.45,1.61-3.27,2.51-5.31,4.96-6.51,7.57-13,6.43-23.04-.07-.61-1.03-.6-1.07,0"/>
            <path class="cls-3" d="M133.2,59.71c-.85,4.41-.86,9.53-.86,5.64,0-8.7-.21,21.49-.23,30.19-.01,8.91-.57,16.67.13,25.56.02.32.72,6.43.96,6.24.21.08.88-5.81.89-6.04.12-2.91.24-16.65.26-25.28.02-8.85.41-17.78-.13-26.63-.03-.43.17-9.69-1.03-9.69"/>
          </g>
        </g>
      </g>
    </g>
  </g>
</svg>